<svg width="156" height="32" viewBox="0 0 156 32" fill="none" xmlns="http://www.w3.org/2000/svg">
<path fill-rule="evenodd" clip-rule="evenodd" d="M26.4139 0C26.9998 0.000100524 27.539 0.32035 27.8192 0.834961L35.7684 15.4434C36.0346 15.9326 36.0271 16.5254 35.7489 17.0078L27.5584 31.2002C27.2726 31.6951 26.7442 32 26.1727 32H9.79182C9.22029 32 8.69192 31.6951 8.40608 31.2002L0.213695 17.0059C-0.0718622 16.511 -0.0709249 15.9011 0.214671 15.4062L8.64338 0.800781C8.92916 0.305596 9.45739 2.49918e-08 10.0291 0H26.4139ZM19.9305 17.9814C19.3589 17.9815 18.8305 18.2862 18.5448 18.7812L14.3504 26.0498C13.7348 27.1165 14.5046 28.4492 15.7362 28.4492H24.1239C24.6955 28.4492 25.2238 28.1445 25.5096 27.6494L29.7039 20.3809C30.3195 19.3142 29.5497 17.9814 28.3182 17.9814H19.9305ZM78.2303 11.0654C79.5288 11.0655 80.6618 11.3638 81.6297 11.959C82.5977 12.5542 83.3495 13.3896 83.8846 14.4658C84.4197 15.542 84.6873 16.7985 84.6873 18.2354C84.6873 19.6663 84.4197 20.9171 83.8846 21.9873C83.3495 23.0575 82.5977 23.8901 81.6297 24.4854C80.6618 25.0805 79.5288 25.3788 78.2303 25.3789C76.9316 25.3789 75.7979 25.0806 74.8299 24.4854C73.8619 23.8901 73.1101 23.0575 72.575 21.9873C72.0399 20.9171 71.7723 19.6663 71.7723 18.2354C71.7723 16.7985 72.04 15.542 72.575 14.4658C73.1101 13.3896 73.8619 12.5542 74.8299 11.959C75.7979 11.3637 76.9316 11.0654 78.2303 11.0654ZM100.802 11.0654C102.1 11.0655 103.233 11.3638 104.201 11.959C105.169 12.5542 105.921 13.3896 106.456 14.4658C106.991 15.542 107.259 16.7985 107.259 18.2354C107.259 19.6663 106.991 20.9171 106.456 21.9873C105.921 23.0575 105.169 23.8901 104.201 24.4854C103.233 25.0805 102.1 25.3788 100.802 25.3789C99.5029 25.3789 98.3692 25.0806 97.4012 24.4854C96.4332 23.8901 95.6814 23.0575 95.1463 21.9873C94.6113 20.9171 94.3436 19.6663 94.3436 18.2354C94.3436 16.7985 94.6113 15.542 95.1463 14.4658C95.6814 13.3896 96.4332 12.5542 97.4012 11.959C98.3692 11.3637 99.5029 11.0654 100.802 11.0654ZM135.278 11.0654C136.577 11.0654 137.711 11.3637 138.679 11.959C139.646 12.5542 140.398 13.3897 140.933 14.4658C141.468 15.542 141.736 16.7985 141.736 18.2354C141.736 19.6662 141.468 20.9171 140.933 21.9873C140.398 23.0574 139.646 23.8901 138.679 24.4854C137.711 25.0806 136.577 25.3789 135.278 25.3789C133.98 25.3789 132.847 25.0805 131.879 24.4854C130.911 23.8901 130.159 23.0575 129.624 21.9873C129.089 20.9171 128.821 19.6663 128.821 18.2354C128.821 16.7985 129.089 15.542 129.624 14.4658C130.159 13.3896 130.911 12.5542 131.879 11.959C132.847 11.3638 133.98 11.0655 135.278 11.0654ZM149.538 11.0654C150.59 11.0654 151.528 11.2616 152.351 11.6523C153.175 12.0371 153.84 12.578 154.345 13.2754C154.856 13.9728 155.159 14.7878 155.256 15.7197H152.632C152.487 15.0704 152.157 14.511 151.639 14.042C151.128 13.573 150.443 13.3389 149.583 13.3389C148.831 13.3389 148.173 13.5369 147.608 13.9336C147.049 14.3244 146.613 14.8838 146.301 15.6113C145.988 16.3328 145.831 17.1868 145.831 18.1729C145.831 19.1828 145.984 20.0547 146.291 20.7881C146.597 21.5215 147.031 22.0894 147.59 22.4922C148.155 22.895 148.819 23.0966 149.583 23.0967C150.094 23.0967 150.557 23.0036 150.972 22.8174C151.392 22.625 151.745 22.3508 152.027 21.9961C152.316 21.6414 152.517 21.2148 152.632 20.7158H155.256C155.159 21.6117 154.868 22.4118 154.381 23.1152C153.894 23.8185 153.241 24.3717 152.424 24.7744C151.612 25.1771 150.659 25.3789 149.565 25.3789C148.224 25.3789 147.069 25.075 146.101 24.4678C145.14 23.8546 144.401 23.0096 143.884 21.9336C143.367 20.8574 143.107 19.6242 143.107 18.2354C143.107 16.8285 143.372 15.5869 143.901 14.5107C144.43 13.4286 145.176 12.5838 146.138 11.9766C147.1 11.3693 148.233 11.0654 149.538 11.0654ZM112.166 13.4912H112.328C112.484 13.2026 112.71 12.869 113.005 12.4902C113.299 12.1115 113.708 11.7806 114.231 11.498C114.754 11.2095 115.446 11.0654 116.305 11.0654C117.424 11.0654 118.422 11.3479 119.3 11.9131C120.177 12.4783 120.866 13.2932 121.365 14.3574C121.87 15.4216 122.123 16.7022 122.123 18.1992C122.123 19.6962 121.873 20.9797 121.374 22.0498C120.875 23.114 120.189 23.9355 119.317 24.5127C118.446 25.0836 117.451 25.3691 116.333 25.3691C115.491 25.3691 114.802 25.2278 114.267 24.9453C113.738 24.6627 113.323 24.3319 113.022 23.9531C112.722 23.5745 112.49 23.2379 112.328 22.9434H112.102V25.0986H109.47V6.62793H112.166V13.4912ZM90.3065 11.2451H93.1473V13.4102H90.3065V21.0312C90.3065 21.5541 90.3856 21.9474 90.5418 22.2119C90.6981 22.4703 90.899 22.6479 91.1453 22.7441C91.3979 22.8343 91.672 22.8799 91.9666 22.8799C92.1827 22.8799 92.3719 22.8649 92.534 22.835C92.6961 22.8049 92.8227 22.7807 92.9129 22.7627L93.4002 24.9902C93.2439 25.0503 93.0217 25.1108 92.7332 25.1709C92.4446 25.237 92.0831 25.2723 91.6502 25.2783C90.9411 25.2903 90.2799 25.1648 89.6668 24.9004C89.0537 24.6359 88.5573 24.2268 88.1785 23.6738C87.7998 23.1207 87.6102 22.4256 87.6102 21.5898V13.4102H85.5809V11.2451H87.6102V7.92676H90.3065V11.2451ZM55.7303 6.62793C57.1672 6.62793 58.3576 6.89004 59.3016 7.41309C60.2455 7.93617 60.9527 8.65168 61.4217 9.55957C61.8905 10.4613 62.1248 11.4773 62.1248 12.6074C62.1248 13.7438 61.8869 14.7659 61.4119 15.6738C60.943 16.5756 60.2339 17.2912 59.284 17.8203C58.34 18.3434 57.1525 18.6045 55.7215 18.6045H51.9334V25.0986H49.1473V6.62793H55.7303ZM70.4276 11.0391C70.5959 11.0391 70.7948 11.0446 71.0233 11.0566C71.2575 11.0687 71.4409 11.0835 71.5731 11.1016V13.6816C71.4649 13.6516 71.2724 13.6181 70.9959 13.582C70.7193 13.5399 70.4424 13.5186 70.1658 13.5186C69.5286 13.5186 68.9607 13.6543 68.4617 13.9248C67.9687 14.1894 67.5775 14.5592 67.2889 15.0342C67.0004 15.5031 66.8563 16.0385 66.8563 16.6396V25.0986H64.16V11.2461H66.7664V13.4463H66.91C67.1625 12.701 67.6078 12.1153 68.2449 11.6885C68.8883 11.2556 69.6159 11.0391 70.4276 11.0391ZM126.831 25.0986H124.135V6.62793H126.831V25.0986ZM11.4481 7.91211C10.8506 6.81444 9.28174 6.7945 8.65705 7.87695L4.31233 15.4062C4.02671 15.9012 4.02671 16.5109 4.31233 17.0059L8.50569 24.2734C9.12149 25.3403 10.6624 25.3403 11.2781 24.2734L15.4998 16.957C15.7781 16.4746 15.7856 15.8818 15.5194 15.3926L11.4481 7.91211ZM78.2391 13.3203C77.3913 13.3203 76.6879 13.5462 76.1287 13.9971C75.5756 14.448 75.163 15.0464 74.8924 15.792C74.628 16.5314 74.4959 17.343 74.4959 18.2266C74.4959 19.1164 74.6279 19.9314 74.8924 20.6709C75.163 21.4104 75.5756 22.0023 76.1287 22.4473C76.6879 22.8921 77.3914 23.1152 78.2391 23.1152C79.0807 23.1152 79.7778 22.8921 80.3309 22.4473C80.884 22.0024 81.2929 21.4103 81.5574 20.6709C81.828 19.9314 81.9637 19.1164 81.9637 18.2266C81.9637 17.3429 81.8279 16.5314 81.5574 15.792C81.2929 15.0464 80.884 14.448 80.3309 13.9971C79.7778 13.5462 79.0807 13.3204 78.2391 13.3203ZM100.81 13.3203C99.9626 13.3203 99.2592 13.5461 98.7 13.9971C98.1469 14.448 97.7352 15.0464 97.4647 15.792C97.2002 16.5314 97.0672 17.3428 97.0672 18.2266C97.0672 19.1164 97.2001 19.9314 97.4647 20.6709C97.7352 21.4103 98.1469 22.0024 98.7 22.4473C99.2592 22.8922 99.9626 23.1152 100.81 23.1152C101.652 23.1152 102.349 22.8921 102.902 22.4473C103.455 22.0024 103.864 21.4103 104.129 20.6709C104.399 19.9314 104.535 19.1164 104.535 18.2266C104.535 17.3428 104.399 16.5314 104.129 15.792C103.864 15.0464 103.455 14.448 102.902 13.9971C102.349 13.5462 101.652 13.3203 100.81 13.3203ZM135.287 13.3203C134.439 13.3204 133.736 13.5462 133.177 13.9971C132.624 14.448 132.212 15.0466 131.941 15.792C131.677 16.5314 131.545 17.3429 131.545 18.2266C131.545 19.1164 131.677 19.9314 131.941 20.6709C132.212 21.4102 132.624 22.0024 133.177 22.4473C133.736 22.8921 134.439 23.1152 135.287 23.1152C136.129 23.1152 136.827 22.8922 137.38 22.4473C137.933 22.0024 138.342 21.4103 138.606 20.6709C138.877 19.9314 139.013 19.1164 139.013 18.2266C139.013 17.3429 138.877 16.5314 138.606 15.792C138.342 15.0465 137.933 14.448 137.38 13.9971C136.827 13.5461 136.129 13.3203 135.287 13.3203ZM115.728 13.3564C114.947 13.3564 114.285 13.5572 113.744 13.96C113.209 14.3628 112.803 14.925 112.526 15.6465C112.25 16.3679 112.112 17.2099 112.112 18.1719C112.112 19.1459 112.253 19.9999 112.536 20.7334C112.819 21.4669 113.227 22.0412 113.763 22.4561C114.298 22.8648 114.953 23.0693 115.728 23.0693C116.534 23.0693 117.208 22.8556 117.749 22.4287C118.29 21.9958 118.699 21.4093 118.975 20.6699C119.258 19.9305 119.399 19.0976 119.399 18.1719C119.399 17.2581 119.261 16.4374 118.984 15.71C118.714 14.9825 118.305 14.4082 117.758 13.9873C117.217 13.5665 116.54 13.3565 115.728 13.3564ZM51.9334 16.2422H55.4686C56.3764 16.2422 57.1134 16.086 57.6785 15.7734C58.2437 15.4548 58.6591 15.0217 58.9237 14.4746C59.1882 13.9275 59.3201 13.3049 59.3201 12.6074C59.3201 11.9102 59.188 11.291 58.9237 10.75C58.6591 10.2089 58.2409 9.78418 57.6698 9.47754C57.1046 9.17091 56.3584 9.01758 55.4324 9.01758H51.9334V16.2422ZM15.8084 3.55078C14.5947 3.55078 13.8231 4.8489 14.4031 5.91504L18.5819 13.5957C18.862 14.1103 19.4012 14.4305 19.9871 14.4307H28.4842C29.6977 14.4305 30.4692 13.1324 29.8895 12.0664L25.7098 4.38574C25.4296 3.87107 24.8905 3.55078 24.3045 3.55078H15.8084Z" fill="white"/>
</svg>

